<svg width="1023" height="877" viewBox="0 0 1023 877" fill="none" xmlns="http://www.w3.org/2000/svg">
<path d="M320.4 129.252V87.9223H335.676V129.252H320.4Z" fill="black"/>
<path d="M350.288 129.252V99.1625H338.933V87.9223H376.919V99.1625H365.564V129.252H350.288Z" fill="black"/>
<path d="M391.921 87.8157C391.567 89.2324 391.115 90.9244 390.564 92.8919C390.013 94.8594 389.423 96.8466 388.793 98.8535C388.163 100.821 387.514 102.533 386.845 103.989H378.818C379.093 102.651 379.368 101.254 379.644 99.7979C379.919 98.3026 380.175 96.827 380.411 95.371C380.687 93.8757 380.923 92.4394 381.12 91.0621C381.356 89.6455 381.533 88.347 381.651 87.1665H391.508L391.921 87.8157Z" fill="black"/>
<path d="M412.975 130.26C401.562 130.26 393.434 126.485 393.434 117.32H409.026C409.026 120.259 410.583 121.614 412.975 121.614C414.906 121.614 416.289 120.749 416.289 118.818C416.289 116.743 414.762 115.821 411.793 114.783L406.087 112.795C399.141 110.374 393.837 107.521 393.837 100.258C393.837 90.7756 402.484 87 412.975 87C422.025 87 431.421 90.4585 431.421 99.566H416.289C416.232 96.8568 414.82 95.5887 412.658 95.5887C410.669 95.5887 409.315 96.6262 409.315 98.269C409.315 100.258 411.102 100.921 413.724 101.872L419.056 103.803C426.521 106.512 432.285 109.48 432.285 117.32C432.285 126.715 423.812 130.26 412.975 130.26Z" fill="black"/>
<path d="M465.084 130.26C453.671 130.26 445.543 126.485 445.543 117.32H461.136C461.136 120.259 462.692 121.614 465.084 121.614C467.015 121.614 468.399 120.749 468.399 118.818C468.399 116.743 466.871 115.821 463.902 114.783L458.196 112.795C451.25 110.374 445.947 107.521 445.947 100.258C445.947 90.7756 454.593 87 465.084 87C474.134 87 483.53 90.4585 483.53 99.566H468.399C468.341 96.8568 466.929 95.5887 464.767 95.5887C462.778 95.5887 461.424 96.6262 461.424 98.269C461.424 100.258 463.211 100.921 465.833 101.872L471.165 103.803C478.63 106.512 484.394 109.48 484.394 117.32C484.394 126.715 475.921 130.26 465.084 130.26Z" fill="black"/>
<path d="M487.738 129.252V87.9223H503.013V129.252H487.738Z" fill="black"/>
<path d="M507.855 129.252V87.9223H528.347L534.544 112.218L540.798 87.9223H560.685V129.252H546.62V104.206L540.222 129.252H528.405L521.92 104.61V129.252H507.855Z" fill="black"/>
<path d="M565.556 129.252V87.9223H584.52C595.299 87.9223 602.851 91.4096 602.851 101.641C602.851 112.449 595.415 116.196 584.924 116.196H580.831V129.252H565.556ZM580.831 107.088H582.359C585.558 107.088 587.719 105.503 587.719 101.814C587.719 98.1826 585.558 96.9721 582.33 96.9721H580.831V107.088Z" fill="black"/>
<path d="M605.848 129.252V87.9223H621.123V118.011H638.705V129.252H605.848Z" fill="black"/>
<path d="M641.99 129.252V87.9223H676.057V97.6638H657.266V103.342H672.627V113.141H657.266V119.452H676.057V129.252H641.99Z" fill="black"/>
<path d="M686.519 129.972C682.311 129.972 679.256 126.888 679.256 122.882C679.256 118.876 682.311 115.85 686.519 115.85C690.698 115.85 693.782 118.876 693.782 122.882C693.782 126.888 690.698 129.972 686.519 129.972ZM679.256 103.947C679.256 99.9406 682.311 96.9144 686.519 96.9144C690.698 96.9144 693.782 99.9406 693.782 103.947C693.782 107.953 690.698 111.037 686.519 111.037C682.311 111.037 679.256 107.953 679.256 103.947Z" fill="black"/>
<path d="M86.8494 460.476V426.364H72.0837V413.213H121.654V426.364H106.889V460.476H86.8494Z" fill="black"/>
<path d="M125.774 460.476V413.213H145.813V429.89H158.667V413.213H178.706V460.476H158.667V442.81H145.813V460.476H125.774Z" fill="black"/>
<path d="M184.903 460.476V413.213H230.156V424.518H204.942V430.681H225.607V442.184H204.942V449.006H230.156V460.476H184.903Z" fill="black"/>
<path d="M244.658 460.476L260.709 413.213H289.087L305.072 460.476H283.879L281.803 452.862H267.63L265.521 460.476H244.658ZM270.662 440.701H278.836L274.782 425.474L270.662 440.701Z" fill="black"/>
<path d="M333.219 461.728C315.256 461.728 304.083 453.423 304.083 436.746C304.083 420.003 316.014 411.895 333.878 411.895C349.896 411.895 361.036 418.816 362.025 430.484H340.569C340.371 425.968 338.262 422.87 333.779 422.87C328.11 422.87 325.605 427.814 325.605 436.779C325.605 445.677 327.913 450.654 333.581 450.654C338.525 450.654 340.536 446.864 340.898 442.184H362.124C361.135 455.565 348.842 461.728 333.219 461.728Z" fill="black"/>
<path d="M377.483 460.476V426.364H362.717V413.213H412.288V426.364H397.522V460.476H377.483Z" fill="black"/>
<path d="M458.002 461.794C440.138 461.794 427.713 453.719 427.713 436.779C427.713 419.706 440.83 411.895 458.002 411.895C475.273 411.895 488.292 419.574 488.292 436.779C488.292 453.719 475.998 461.794 458.002 461.794ZM449.235 436.779C449.235 445.018 451.641 450.819 458.002 450.819C464.33 450.819 466.736 445.018 466.736 436.779C466.736 428.572 464.297 422.87 458.002 422.87C451.674 422.87 449.235 428.605 449.235 436.779Z" fill="black"/>
<path d="M492.873 460.476V413.213H535.885V425.078H512.912V432.197H532.028V444.128H512.912V460.476H492.873Z" fill="black"/>
<path d="M580.874 461.728C562.911 461.728 551.738 453.423 551.738 436.746C551.738 420.003 563.669 411.895 581.533 411.895C597.551 411.895 608.691 418.816 609.68 430.484H588.224C588.026 425.968 585.917 422.87 581.434 422.87C575.765 422.87 573.26 427.814 573.26 436.779C573.26 445.677 575.567 450.654 581.236 450.654C586.18 450.654 588.191 446.864 588.553 442.184H609.779C608.79 455.565 596.497 461.728 580.874 461.728Z" fill="black"/>
<path d="M613.635 460.476V413.213H643.496C658.064 413.213 664.821 417.498 664.821 426.133C664.821 433.681 659.877 437.24 653.845 438.624C661.162 439.877 665.15 442.217 665.15 449.698V460.476H645.078V449.435C645.078 445.282 642.507 443.7 637.432 443.7H633.674V460.476H613.635ZM633.674 433.615H638.223C642.277 433.615 645.078 432.263 645.078 428.407C645.078 424.848 642.409 423.628 638.223 423.628H633.674V433.615Z" fill="black"/>
<path d="M670.457 460.476V413.213H715.71V424.518H690.496V430.681H711.161V442.184H690.496V449.006H715.71V460.476H670.457Z" fill="black"/>
<path d="M716.962 460.476L733.013 413.213H761.391L777.376 460.476H756.184L754.107 452.862H739.935L737.825 460.476H716.962ZM742.967 440.701H751.141L747.087 425.474L742.967 440.701Z" fill="black"/>
<path d="M786.836 460.476V426.364H772.07V413.213H821.64V426.364H806.875V460.476H786.836Z" fill="black"/>
<path d="M825.76 460.476V413.213H845.799V460.476H825.76Z" fill="black"/>
<path d="M880.67 461.794C862.806 461.794 850.381 453.719 850.381 436.779C850.381 419.706 863.499 411.895 880.67 411.895C897.941 411.895 910.96 419.574 910.96 436.779C910.96 453.719 898.666 461.794 880.67 461.794ZM871.903 436.779C871.903 445.018 874.309 450.819 880.67 450.819C886.998 450.819 889.404 445.018 889.404 436.779C889.404 428.572 886.965 422.87 880.67 422.87C874.342 422.87 871.903 428.605 871.903 436.779Z" fill="black"/>
<path d="M915.541 460.476V413.213H939.7L953.609 438.69V413.213H972V460.476H948.896L933.965 433.186V460.476H915.541Z" fill="black"/>
<path d="M136.618 514.685V467.422H162.425L170.434 494.679L178.608 467.422H203.722V514.685H185.76V486.571L177.421 514.685H162.985L154.58 486.802V514.685H136.618Z" fill="black"/>
<path d="M235.363 516.036C217.664 516.036 209.523 509.84 209.523 498.997V467.422H229.562V497.678C229.562 501.403 231.639 503.347 235.363 503.347C239.187 503.347 241.197 501.403 241.197 497.678V467.422H261.236V498.997C261.236 509.84 253.029 516.036 235.363 516.036Z" fill="black"/>
<path d="M290.965 516.003C275.903 516.003 265.323 511.323 265.158 500.908H286.12C286.153 504.336 288.263 506.05 291.493 506.05C293.866 506.05 295.777 505.094 295.777 502.82C295.777 500.447 293.866 499.425 290.174 498.371L282.066 496.129C273.497 493.625 265.752 490.395 265.752 481.726C265.752 470.554 277.452 466.17 290.866 466.17C302.897 466.17 315.289 470.257 315.718 480.771H295.448C295.283 477.442 293.305 476.058 290.603 476.058C288.098 476.058 286.252 477.31 286.252 479.288C286.252 481.496 288.329 482.221 291.13 483.111L300.556 485.649C309.587 488.384 316.739 491.845 316.739 500.81C316.739 511.785 305.336 516.003 290.965 516.003Z" fill="black"/>
<path d="M332.296 514.685V480.573H317.53V467.422H367.101V480.573H352.335V514.685H332.296Z" fill="black"/>
<path d="M408.036 516.003C392.974 516.003 382.394 511.323 382.229 500.908H403.191C403.224 504.336 405.334 506.05 408.564 506.05C410.937 506.05 412.848 505.094 412.848 502.82C412.848 500.447 410.937 499.425 407.245 498.371L399.137 496.129C390.568 493.625 382.822 490.395 382.822 481.726C382.822 470.554 394.523 466.17 407.937 466.17C419.967 466.17 432.36 470.257 432.788 480.771H412.519C412.354 477.442 410.376 476.058 407.674 476.058C405.169 476.058 403.323 477.31 403.323 479.288C403.323 481.496 405.399 482.221 408.201 483.111L417.627 485.649C426.658 488.384 433.81 491.845 433.81 500.81C433.81 511.785 422.406 516.003 408.036 516.003Z" fill="black"/>
<path d="M449.367 514.685V480.573H434.601V467.422H484.172V480.573H469.406V514.685H449.367Z" fill="black"/>
<path d="M478.832 514.685L494.884 467.422H523.261L539.247 514.685H518.054L515.977 507.072H501.805L499.696 514.685H478.832ZM504.837 494.91H513.011L508.957 479.683L504.837 494.91Z" fill="black"/>
<path d="M550.156 503.479C550.156 500.315 548.936 498.865 544.619 498.931L531.864 467.422H553.551L560.274 487.659L566.998 467.422H588.454L575.798 498.931C571.316 498.865 570.261 500.315 570.261 503.479V514.685H550.156V503.479Z" fill="black"/>
<path d="M603.517 514.685V467.422H623.556V484.1H636.41V467.422H656.449V514.685H636.41V497.019H623.556V514.685H603.517Z" fill="black"/>
<path d="M688.09 516.036C670.391 516.036 662.25 509.84 662.25 498.997V467.422H682.289V497.678C682.289 501.403 684.366 503.347 688.09 503.347C691.913 503.347 693.924 501.403 693.924 497.678V467.422H713.963V498.997C713.963 509.84 705.756 516.036 688.09 516.036Z" fill="black"/>
<path d="M719.797 514.685V467.422H745.604L753.613 494.679L761.787 467.422H786.901V514.685H768.939V486.571L760.6 514.685H746.164L737.759 486.802V514.685H719.797Z" fill="black"/>
<path d="M789.769 514.685L805.82 467.422H834.198L850.183 514.685H828.99L826.914 507.072H812.741L810.632 514.685H789.769ZM815.774 494.91H823.947L819.894 479.683L815.774 494.91Z" fill="black"/>
<path d="M853.083 514.685V467.422H877.242L891.151 492.899V467.422H909.542V514.685H886.438L871.508 487.395V514.685H853.083Z" fill="black"/>
<path d="M72 773.798L96.0179 544.19H170.313L197.533 773.798H147.416L143.253 723.201H124.359L120.996 773.798H72ZM126.601 683.172H140.691L133.166 584.86H132.845L126.601 683.172Z" fill="black"/>
<path d="M257.098 777C220.11 777 200.896 756.825 200.896 724.482V595.428C200.896 562.123 221.231 540.988 257.898 540.988C293.925 540.988 314.1 561.163 314.1 595.428V628.091H265.264V589.663C265.264 584.86 262.862 581.017 257.898 581.017C252.935 581.017 250.533 584.7 250.533 589.663V728.485C250.533 733.288 252.775 736.971 257.898 736.971C262.702 736.971 265.264 733.288 265.264 728.485V683.972H314.1V724.482C314.1 756.185 294.406 777 257.098 777Z" fill="black"/>
<path d="M347.085 773.798V585.821H317.463V544.19H424.743V585.821H395.12V773.798H347.085Z" fill="black"/>
<path d="M467.975 773.798V544.19H527.859L552.037 666.199H552.357V544.19H597.191V773.798H541.63L513.128 634.336H512.808V773.798H467.975Z" fill="black"/>
<path d="M668.444 777C629.535 777 610.801 756.345 610.801 719.838V598.15C610.801 563.244 631.456 540.988 668.444 540.988C705.431 540.988 726.087 562.283 726.087 598.15V719.838C726.087 756.345 707.193 777 668.444 777ZM661.078 728.164C661.078 733.288 663.32 736.971 668.444 736.971C673.568 736.971 675.809 733.288 675.809 728.164V589.823C675.809 585.02 673.408 581.017 668.444 581.017C663.32 581.017 661.078 584.7 661.078 589.823V728.164Z" fill="black"/>
<path d="M750.425 773.798L733.132 544.19H777.485L783.409 708.15H783.73L793.337 544.19H842.814L852.261 709.751H852.581L858.665 544.19H902.058L884.765 773.798H826.482L817.195 611.599H816.874L808.708 773.798H750.425Z" fill="black"/>
<path d="M935.202 776.36C920.471 776.36 909.583 765.311 909.583 750.581C909.583 736.01 920.471 724.962 935.202 724.962C949.773 724.962 960.661 736.01 960.661 750.581C960.661 765.311 949.773 776.36 935.202 776.36ZM910.384 544.19H959.22L952.495 719.038H917.109L910.384 544.19Z" fill="black"/>
</svg>
