<svg width="1080" height="1350" viewBox="0 0 1080 1350" fill="none" xmlns="http://www.w3.org/2000/svg">
<path d="M549.153 1243.94C551.277 1243.84 552.749 1245.17 552.86 1247.35L553.252 1254.99L554.993 1255.27L555.07 1256.25L553.321 1256.34L551.022 1256.45L549.25 1256.54L549.226 1255.56L550.953 1255.1L550.602 1248.22C550.509 1246.46 549.722 1245.68 548.295 1245.75C547.095 1245.81 546.195 1246.33 545.361 1247.16L545.781 1255.36L547.55 1255.64L547.626 1256.62L545.851 1256.7L543.551 1256.82L541.679 1256.91L541.652 1255.93L543.482 1255.47H543.488L543.024 1246.46L540.989 1246.36L540.917 1245.48L544.281 1244.18L545.081 1244.14L545.168 1245.81L545.668 1245.79C546.568 1244.78 547.63 1244.02 549.153 1243.94ZM535.646 1239.24L538.286 1239.48L540.652 1239.69L540.513 1240.67L538.162 1240.83L536.827 1255.27L539.111 1255.85L539.069 1256.83L536.703 1256.62L534.063 1256.39L531.695 1256.18H531.691L531.832 1255.2L534.184 1255.04L535.518 1240.59L533.236 1240.02L533.277 1239.03L535.646 1239.24ZM558.266 1243.25L562.044 1242.51L562.337 1244.21L558.611 1244.94L559.941 1251.47C560.237 1252.92 561.017 1253.62 562.12 1253.4C562.954 1253.24 563.375 1252.68 563.716 1251.96L564.606 1252.44C564.113 1254.16 563.185 1255.12 561.862 1255.38H561.855C559.989 1255.75 558.331 1254.49 557.859 1252.18L556.662 1246.3L556.445 1245.24L556.079 1245.31L554.191 1245.68L553.921 1244.73L556.056 1243.69L556.928 1240.71L557.714 1240.55L558.266 1243.25ZM521.32 1235.51L516.576 1251.95L518.255 1252.8L518.007 1253.76L516.2 1253.25L513.987 1252.64L512.181 1252.13L512.477 1251.2L514.36 1251.33V1251.34L518.489 1237.02L516.594 1236.29L516.815 1235.43L520.548 1235.3L521.32 1235.51ZM567.695 1240.25C570.49 1239.32 572.983 1240.72 573.973 1243.58L573.925 1243.6L573.356 1243.79L571.736 1244.3L565.93 1246.16C565.961 1246.33 566.002 1246.45 566.05 1246.59C566.984 1249.29 569.24 1250.85 571.539 1250.08L571.535 1250.08C573.17 1249.53 574 1248.12 574.025 1246.5L574.99 1246.54C575.535 1249.19 574.228 1251.68 571.67 1252.53C568.543 1253.57 565.634 1251.51 564.486 1248.18C563.314 1244.77 564.423 1241.34 567.695 1240.25ZM503.623 1239.14C505.219 1236.95 507.454 1236.3 509.688 1237.24L509.685 1237.23C511.825 1238.12 512.836 1240.01 511.936 1242.04L509.467 1247.58C509.26 1248.05 508.971 1248.92 509.502 1249.14C509.778 1249.25 510.212 1249.19 510.684 1248.86L511.109 1249.51C510.267 1250.39 509.254 1251.04 508.151 1250.58C507.182 1250.18 506.692 1249.18 507.02 1248.16L506.558 1247.97C505.42 1248.73 504.096 1248.89 502.945 1248.42C501.424 1247.78 500.748 1246.19 501.42 1244.64C502.258 1242.69 504.393 1242.53 506.675 1242.98L508.957 1243.42L509.66 1241.79C510.226 1240.47 509.75 1239.18 508.388 1238.62C507.285 1238.15 505.844 1238.28 504.382 1239.78L503.623 1239.14ZM581.438 1245.96L583.272 1245.51L583.723 1246.38L582.027 1247.17L579.951 1248.15L578.255 1248.94L577.848 1248.04L579.359 1246.93L579.362 1246.93L572.856 1233.5L570.939 1234.18L570.528 1233.39L573.242 1230.87L573.966 1230.53L581.438 1245.96ZM506.702 1244.03C505.578 1243.85 504.137 1244.05 503.679 1245.12C503.338 1245.91 503.748 1246.72 504.623 1247.08C505.568 1247.48 506.74 1247.22 507.564 1246.63L508.57 1244.3L506.702 1244.03ZM502.393 1233.65L503.085 1234.05L497.345 1243.76L498.973 1245.12L498.493 1245.98L496.655 1244.93L494.666 1243.8L492.828 1242.75L493.353 1241.91L495.36 1242.63L495.353 1242.62L499.965 1234.82L498.314 1233.66L498.745 1232.88L502.393 1233.65ZM588.043 1242.34L589.825 1241.72L590.36 1242.56L588.749 1243.5L586.771 1244.66L585.16 1245.6L584.671 1244.75L586.068 1243.5L586.064 1243.49L578.317 1230.72L576.473 1231.57L575.989 1230.82L578.451 1228.06L579.141 1227.66L588.043 1242.34ZM571.236 1243.17C570.446 1241.8 569.236 1240.98 567.698 1241.5C566.157 1242.01 565.54 1243.44 565.709 1245.14L571.239 1243.17H571.236ZM594.948 1237.7L596.862 1236.78L597.476 1237.55L595.759 1238.79L593.901 1240.13L592.184 1241.36L591.614 1240.56L593.087 1239.04H593.09L587.664 1231.76L585.909 1232.78L585.358 1232.08L587.539 1229.1L588.188 1228.64L594.948 1237.7ZM486.144 1230.59C488.502 1227.53 492.022 1226.79 494.656 1228.76C496.89 1230.42 497.345 1233.05 495.697 1235.18L493.825 1233.79C495.022 1232.24 495.156 1230.52 493.78 1229.49C492.288 1228.38 489.936 1228.94 488.35 1231C486.564 1233.31 486.692 1236.03 488.529 1237.4L488.523 1237.39C489.816 1238.36 491.474 1238.33 492.915 1237.4L493.422 1238.21C491.46 1240.14 488.647 1240.44 486.513 1238.86C484.079 1237.04 483.813 1233.6 486.144 1230.59ZM601.065 1220.07L599.034 1221.43L599.258 1221.66C599.961 1221.85 600.572 1222.23 601.127 1222.8C602.854 1224.57 602.692 1227 600.63 1228.94C599.996 1229.54 599.351 1229.94 598.654 1230.19H598.658C598.555 1230.76 598.575 1231.35 598.941 1231.72C599.858 1232.66 601.375 1230.49 603.216 1228.93C605.978 1226.57 607.681 1227.04 608.874 1228.27C611.053 1230.51 609.987 1233.72 607.291 1236.25C604.94 1238.46 602.682 1238.91 601.334 1237.52C600.572 1236.74 600.44 1235.71 600.916 1234.14L600.589 1233.8C599.572 1234.18 598.548 1234.09 597.493 1233L597.755 1230.79L597.41 1230.43C596.311 1230.47 595.259 1230.03 594.38 1229.13C592.653 1227.35 592.798 1224.97 594.842 1223.05C595.69 1222.26 596.569 1221.84 597.289 1221.16L599.859 1218.75L601.065 1220.07ZM608.084 1230.31C607.305 1229.51 606.102 1229.52 604.478 1230.84C603.719 1231.45 602.889 1232.33 601.934 1233.02C601.586 1234.3 601.882 1235.31 602.468 1235.92C603.385 1236.86 605.105 1236.6 606.825 1234.99V1234.99C608.525 1233.4 609.17 1231.43 608.084 1230.31ZM487.468 1222.76L488.04 1223.31L480.072 1231.36L481.317 1233.07L480.638 1233.79L479.113 1232.33L477.466 1230.75L475.942 1229.3L476.655 1228.61L478.424 1229.79L484.823 1223.32L483.51 1221.79L484.12 1221.14L487.468 1222.76ZM502.355 1229.02C502.844 1228.19 503.906 1227.92 504.747 1228.4C505.592 1228.88 505.871 1229.92 505.385 1230.75C504.895 1231.58 503.834 1231.86 502.989 1231.38C502.145 1230.89 501.865 1229.85 502.355 1229.02ZM599.427 1224.4C598.251 1223.19 596.614 1222.93 595.638 1223.84C594.662 1224.76 594.925 1226.35 596.083 1227.54C597.259 1228.75 598.861 1229.08 599.837 1228.16C600.813 1227.24 600.62 1225.62 599.431 1224.4H599.427ZM583.582 1224.88C584.368 1224.31 585.454 1224.48 586.029 1225.25C586.605 1226.02 586.44 1227.09 585.651 1227.65C584.864 1228.22 583.782 1228.06 583.202 1227.29H583.206C582.63 1226.51 582.796 1225.45 583.582 1224.88ZM479.831 1214.87C482.034 1213.09 485.95 1212.5 489.284 1216.49L487.275 1218.12L486.227 1216.86C483.717 1213.86 482.989 1213.88 481.224 1216.57L483.21 1218.95L481.823 1220L479.917 1217.72L472.67 1223.57L474.125 1225.9L473.37 1226.54L468.799 1221.07L469.588 1220.46V1220.46L471.212 1221.83L478.556 1215.9L477.252 1214.34L477.976 1213.66L479.831 1214.87ZM603.168 1213.87C604.961 1211.56 607.825 1211.36 610.27 1213.2L610.239 1213.24L609.873 1213.71L608.819 1215.02L605.054 1219.74C605.178 1219.87 605.278 1219.94 605.399 1220.03C607.709 1221.76 610.464 1221.82 611.936 1219.93L611.943 1219.93C612.99 1218.58 612.876 1216.94 611.977 1215.59L612.801 1215.09C614.756 1217 615.079 1219.78 613.439 1221.89C611.432 1224.47 607.846 1224.34 605.002 1222.21C602.099 1220.03 601.072 1216.57 603.168 1213.87ZM488.574 1218.26C489.254 1217.57 490.35 1217.55 491.05 1218.23C491.75 1218.89 491.763 1219.97 491.084 1220.66C490.405 1221.35 489.305 1221.36 488.609 1220.69C487.909 1220.02 487.895 1218.95 488.574 1218.26ZM476.504 1209.79L476.939 1210.45L467.354 1216.58L468.185 1218.51L467.361 1219.07L466.199 1217.31L464.945 1215.42L463.785 1213.67L464.637 1213.15L466.099 1214.68L466.103 1214.68L473.798 1209.76L472.86 1207.98L473.601 1207.48L476.504 1209.79ZM607.774 1214.36C606.336 1213.65 604.871 1213.63 603.885 1214.9C602.899 1216.17 603.196 1217.7 604.306 1219.03L607.778 1214.36H607.774ZM610.643 1202.11C611.639 1200.26 613.556 1199.7 615.525 1200.73L622.403 1204.31L623.54 1202.98L624.437 1203.42L623.616 1204.94L622.537 1206.94L621.706 1208.48L620.834 1208L621.323 1206.31L615.131 1203.08C613.538 1202.25 612.459 1202.52 611.79 1203.76C611.228 1204.81 611.214 1205.83 611.511 1206.96L618.9 1210.8L620.048 1209.45L620.945 1209.89L620.113 1211.43L619.034 1213.43L618.154 1215.06L617.282 1214.58L617.814 1212.81L609.704 1208.58L608.577 1210.25L607.771 1209.85L608.357 1206.35L608.733 1205.65L610.236 1206.43L610.47 1206C610.053 1204.72 609.926 1203.43 610.643 1202.11ZM564.686 1120.7C578.08 1120.67 588.988 1131.38 588.988 1144.55C588.988 1154.41 582.921 1162.86 574.257 1166.51C573.081 1167 573.081 1168.64 574.257 1169.13V1169.13C582.917 1172.77 588.988 1181.23 588.988 1191.08C588.988 1204.27 578.059 1214.98 564.654 1214.94C554.632 1214.91 546.044 1208.9 542.376 1200.34C541.876 1199.17 540.198 1199.17 539.697 1200.34C536.029 1208.9 527.437 1214.91 517.411 1214.94C504.007 1214.98 493.085 1204.27 493.085 1191.08C493.085 1181.22 499.163 1172.76 507.834 1169.12C509.01 1168.63 509.009 1166.99 507.834 1166.5C499.184 1162.85 493.119 1154.4 493.119 1144.55C493.119 1131.38 504.034 1120.67 517.432 1120.7C527.451 1120.72 536.039 1126.71 539.718 1135.25C540.218 1136.42 541.889 1136.42 542.393 1135.25C546.071 1126.71 554.667 1120.71 564.686 1120.7ZM470.119 1200.11L473.278 1200.14L473.636 1200.84L471.136 1202.09L472.877 1205.47L471.291 1206.2L469.57 1202.86L463.52 1205.87C462.179 1206.54 461.703 1207.47 462.213 1208.45C462.596 1209.2 463.259 1209.45 464.055 1209.58L463.823 1210.55C462 1210.55 460.811 1209.92 460.2 1208.74H460.207C459.349 1207.07 460.135 1205.16 462.276 1204.1L467.723 1201.39L468.705 1200.9L468.533 1200.57L467.664 1198.88L468.523 1198.37L470.119 1200.11ZM478.593 1205.63C479.41 1205.11 480.482 1205.34 481.017 1206.14C481.548 1206.94 481.324 1208 480.503 1208.52C479.686 1209.04 478.611 1208.82 478.083 1208.01C477.582 1207.26 477.754 1206.28 478.45 1205.74L478.593 1205.63ZM555.49 1181.25C555.142 1181.25 554.86 1181.53 554.86 1181.87V1186.1C554.86 1186.44 555.142 1186.72 555.49 1186.72H559.804C560.152 1186.72 560.435 1187 560.435 1187.34V1194.83C560.434 1195.17 560.152 1195.45 559.804 1195.45H555.49C555.143 1195.45 554.86 1195.73 554.86 1196.07V1200.31C554.86 1200.65 555.142 1200.93 555.49 1200.93H573.863C574.212 1200.93 574.494 1200.65 574.494 1200.31V1196.07C574.494 1195.73 574.212 1195.45 573.863 1195.45H569.551C569.203 1195.45 568.919 1195.17 568.919 1194.83V1187.34C568.919 1187 569.203 1186.72 569.551 1186.72H573.863C574.212 1186.72 574.494 1186.44 574.494 1186.1V1181.87C574.494 1181.53 574.212 1181.25 573.863 1181.25H555.49ZM511.799 1181.29C511.53 1181.29 511.289 1181.46 511.202 1181.71L504.865 1200.05C504.728 1200.45 505.031 1200.87 505.462 1200.87H512.405C512.692 1200.87 512.943 1200.68 513.016 1200.41L513.743 1197.7C513.819 1197.43 514.068 1197.24 514.354 1197.24H520.149C520.435 1197.24 520.687 1197.43 520.759 1197.7L521.476 1200.41C521.548 1200.68 521.8 1200.87 522.086 1200.87H529.171L529.164 1200.87C529.595 1200.87 529.899 1200.45 529.761 1200.05L523.451 1181.71C523.365 1181.46 523.124 1181.3 522.856 1181.29H511.799ZM615.07 1191.58C615.959 1188.97 618.341 1187.71 620.927 1188.56L620.182 1190.75C618.306 1190.13 616.607 1190.56 616.059 1192.17C615.462 1193.92 616.759 1195.93 619.251 1196.75C622.051 1197.67 624.629 1196.67 625.361 1194.53L625.357 1194.53C625.874 1193.01 625.313 1191.48 623.954 1190.43L624.571 1189.7C627.061 1190.91 628.263 1193.43 627.415 1195.92C626.446 1198.77 623.219 1200.12 619.565 1198.92C615.862 1197.7 614.022 1194.66 615.07 1191.58ZM467.454 1191.9L467.72 1192.64L465.22 1193.51L465.385 1193.97C466.847 1194.43 468.74 1195.5 469.374 1197.26L466.919 1198.11L466.737 1197.6C465.623 1194.49 464.489 1193.92 461.699 1194.86L461.462 1194.94L456.98 1196.49L457.448 1198.91L456.515 1199.26L455.684 1196.94L454.922 1194.81L454.298 1193.07L455.249 1192.77L456.218 1194.36V1194.36L464.875 1191.36L464.389 1189.41L465.231 1189.1L467.454 1191.9ZM517.277 1186.38C517.563 1186.38 517.814 1186.57 517.887 1186.84V1186.83L519.194 1191.66C519.297 1192.06 518.997 1192.44 518.583 1192.44H515.949C515.536 1192.44 515.236 1192.06 515.343 1191.66L516.67 1186.83C516.742 1186.56 516.991 1186.38 517.277 1186.38ZM452.287 1174.9L468.705 1178.07L469.805 1180.11L454.618 1188.92L454.542 1190.75L453.564 1190.96L452.346 1183.66L453.343 1183.55L454.156 1186.16L458.414 1183.73L457.353 1177.35L452.543 1176.48L452.615 1179.21L451.636 1179.41L450.619 1173.3L451.612 1173.19L451.622 1173.18L452.287 1174.9ZM616.893 1180.98C617.12 1178.09 619.414 1176.39 622.479 1176.63V1176.67L622.43 1177.26L622.272 1178.93L621.723 1184.9C621.895 1184.94 622.02 1184.95 622.171 1184.96C624.973 1185.17 627.262 1183.85 627.574 1181.6L627.598 1181.38C627.732 1179.69 626.732 1178.38 625.226 1177.72L625.644 1176.87C628.336 1177.42 630.145 1179.58 629.939 1182.23C629.68 1185.46 626.605 1187.27 623.04 1187C619.4 1186.72 616.624 1184.36 616.893 1180.98ZM621.02 1178.93C619.427 1179.11 618.186 1179.88 618.062 1181.47C617.934 1183.06 619.027 1184.18 620.689 1184.7L621.02 1178.93ZM459.714 1183L466.016 1179.42L465.934 1178.93H465.957L458.824 1177.64L459.714 1183ZM542.401 1153.88C541.894 1152.7 540.214 1152.7 539.707 1153.88C537.259 1159.54 532.647 1164.09 526.886 1166.51C525.7 1167 525.7 1168.64 526.886 1169.15C532.643 1171.57 537.25 1176.13 539.691 1181.8C540.197 1182.98 541.879 1182.98 542.386 1181.8H542.383C544.824 1176.12 549.44 1171.56 555.204 1169.14C556.39 1168.64 556.39 1167 555.204 1166.5C549.454 1164.08 544.848 1159.54 542.401 1153.88ZM628.588 1153.71L628.681 1154.49L626.994 1154.68L627.053 1155.17C628.132 1155.99 628.981 1156.98 629.156 1158.47C629.401 1160.55 628.149 1162.07 625.94 1162.33L618.214 1163.22L618.041 1164.94L617.052 1165.08L616.848 1163.37L616.579 1161.13L616.372 1159.39L617.369 1159.3L617.945 1160.97L624.902 1160.17C626.691 1159.96 627.426 1159.13 627.257 1157.74C627.116 1156.57 626.536 1155.72 625.64 1154.96L617.341 1155.91L617.172 1157.66L616.183 1157.8L615.976 1156.07L615.707 1153.82L615.489 1151.99L616.487 1151.9L617.072 1153.66L617.075 1153.67L626.195 1152.62L626.157 1150.63L627.046 1150.5L628.588 1153.71ZM452.381 1148.74H456.738L456.659 1149.82C454.015 1150.44 451.715 1151.78 451.377 1154.64C450.929 1158.4 454.342 1160.4 457.7 1160.79C462.175 1161.3 465.192 1158.8 465.585 1155.5C465.885 1152.99 464.517 1151.15 462.293 1149.93L462.758 1148.99C466.15 1150.35 468.46 1152.94 468.023 1156.63C467.498 1161.03 463.33 1163.89 458.259 1163.31L458.256 1163.3C453.26 1162.73 449.488 1159.08 450.057 1154.29C450.226 1152.87 450.719 1151.72 451.584 1150.55L451.643 1150.06L450.643 1149.38L450.739 1148.55L452.381 1148.74ZM517.684 1134.19C515.16 1134.19 512.953 1134.56 511.061 1135.32C509.168 1136.07 507.696 1137.22 506.645 1138.75C505.59 1140.28 505.066 1142.22 505.066 1144.53C505.066 1146.84 505.565 1148.77 506.565 1150.3L506.569 1150.3C507.568 1151.83 508.992 1152.99 510.84 1153.76C512.688 1154.53 514.878 1154.92 517.408 1154.92C519.056 1154.92 520.597 1154.75 522.034 1154.42C523.472 1154.1 524.741 1153.6 525.844 1152.93C526.944 1152.26 527.83 1151.42 528.495 1150.4C529.043 1149.56 529.402 1148.59 529.568 1147.49C529.623 1147.12 529.326 1146.78 528.944 1146.78H521.214C520.907 1146.78 520.642 1147 520.594 1147.31C520.522 1147.75 520.404 1148.17 520.245 1148.55C520.025 1149.08 519.697 1149.51 519.259 1149.83C518.821 1150.15 518.252 1150.31 517.556 1150.31C516.356 1150.31 515.491 1149.81 514.967 1148.81C514.44 1147.81 514.178 1146.4 514.178 1144.54C514.178 1142.67 514.457 1141.24 515.008 1140.25C515.56 1139.25 516.439 1138.75 517.639 1138.75C518.59 1138.75 519.297 1139.04 519.763 1139.63C520.139 1140.1 520.373 1140.68 520.47 1141.38C520.511 1141.69 520.78 1141.92 521.094 1141.92H528.889C529.282 1141.92 529.578 1141.57 529.509 1141.19C529.275 1139.88 528.72 1138.74 527.844 1137.76C526.813 1136.6 525.427 1135.72 523.694 1135.11C521.959 1134.49 519.956 1134.19 517.684 1134.19ZM565.082 1134.19C562.559 1134.19 560.352 1134.56 558.459 1135.32C556.567 1136.07 555.095 1137.22 554.043 1138.75L554.039 1138.74C552.984 1140.27 552.46 1142.2 552.46 1144.52C552.46 1146.84 552.96 1148.76 553.96 1150.3C554.96 1151.83 556.384 1152.99 558.232 1153.76C560.08 1154.53 562.269 1154.92 564.8 1154.92C566.448 1154.92 567.988 1154.75 569.426 1154.42C570.864 1154.1 572.133 1153.6 573.237 1152.93C574.336 1152.26 575.222 1151.42 575.887 1150.4C576.435 1149.56 576.794 1148.59 576.959 1147.49C577.014 1147.12 576.718 1146.78 576.335 1146.78H568.606C568.299 1146.78 568.034 1147 567.986 1147.31C567.913 1147.75 567.795 1148.17 567.637 1148.55C567.416 1149.08 567.088 1149.51 566.651 1149.83C566.213 1150.15 565.644 1150.31 564.947 1150.31C563.748 1150.31 562.883 1149.81 562.359 1148.81C561.835 1147.81 561.572 1146.4 561.572 1144.54C561.572 1142.67 561.852 1141.24 562.403 1140.25C562.955 1139.25 563.835 1138.75 565.034 1138.75C565.986 1138.75 566.692 1139.04 567.157 1139.63C567.533 1140.1 567.768 1140.68 567.864 1141.38C567.909 1141.69 568.175 1141.92 568.488 1141.92H576.283C576.676 1141.92 576.973 1141.57 576.904 1141.19C576.673 1139.88 576.118 1138.74 575.242 1137.76C574.212 1136.6 572.826 1135.72 571.092 1135.11C569.358 1134.49 567.354 1134.19 565.082 1134.19ZM617.604 1137.78C621.261 1136.67 624.626 1138.3 625.705 1141.73C626.784 1145.16 624.94 1148.37 621.282 1149.48C617.624 1150.59 614.256 1148.96 613.18 1145.53C612.101 1142.1 613.946 1138.89 617.604 1137.78ZM461.766 1137.58L461.607 1138.1C460.648 1141.26 461.224 1142.38 464.048 1143.23L464.285 1143.3L468.844 1144.64L469.908 1142.41L470.874 1142.67L470.16 1145.02L469.502 1147.19L468.968 1148.96L468.016 1148.65L468.185 1146.8H468.189L459.387 1144.23L458.617 1146.08L457.745 1145.85L457.621 1142.3L457.849 1141.54L460.393 1142.29L460.534 1141.82C459.624 1140.6 458.728 1138.65 459.273 1136.85L461.766 1137.58ZM624.513 1142.09C623.861 1140.03 621.503 1139.35 618.393 1140.3C615.287 1141.24 613.725 1143.1 614.376 1145.17C615.028 1147.24 617.386 1147.91 620.492 1146.97C623.602 1146.02 625.161 1144.16 624.513 1142.09ZM462.413 1129.73C463.654 1127.1 466.402 1126.29 469.198 1127.56L469.178 1127.6L468.926 1128.14L468.189 1129.65L465.558 1135.06C465.709 1135.16 465.82 1135.21 465.958 1135.27C468.592 1136.46 471.295 1135.93 472.316 1133.77H472.312C473.036 1132.23 472.56 1130.66 471.385 1129.53L472.081 1128.87C474.408 1130.31 475.342 1132.95 474.208 1135.36C472.822 1138.31 469.295 1138.95 466.047 1137.48C462.734 1135.97 460.965 1132.81 462.413 1129.73ZM467.009 1129.22C465.454 1128.84 464.021 1129.14 463.338 1130.58C462.655 1132.04 463.283 1133.46 464.658 1134.52L467.013 1129.22H467.009ZM613.29 1116.32L613.718 1116.98L612.277 1117.88L612.546 1118.29C613.88 1118.57 615.08 1119.1 615.897 1120.37C617.034 1122.14 616.576 1124.05 614.694 1125.23L608.115 1129.31L608.722 1130.95L607.888 1131.49L606.95 1130.04L605.719 1128.12L604.772 1126.65L605.63 1126.14L606.885 1127.4L612.808 1123.72C614.332 1122.77 614.628 1121.71 613.862 1120.53C613.221 1119.53 612.325 1119.01 611.181 1118.71L604.116 1123.1L604.734 1124.75L603.899 1125.3L602.95 1123.82L601.72 1121.91L600.717 1120.35L601.575 1119.84L602.882 1121.18H602.885L610.65 1116.36L609.736 1114.57L610.484 1114.08L613.29 1116.32ZM468.602 1118.87C469.895 1116.97 471.97 1116.35 473.828 1117.6L478.903 1121.02C479.341 1121.31 480.152 1121.75 480.473 1121.28C480.638 1121.04 480.662 1120.61 480.41 1120.09L481.148 1119.8C481.868 1120.78 482.324 1121.88 481.658 1122.86C481.072 1123.72 479.979 1124.01 479.028 1123.5L478.748 1123.91C479.289 1125.15 479.214 1126.46 478.518 1127.48C477.601 1128.83 475.887 1129.19 474.452 1128.24C472.664 1127.06 472.908 1124.98 473.777 1122.86L474.646 1120.74L473.15 1119.76C471.943 1118.96 470.564 1119.18 469.743 1120.39C469.074 1121.37 468.926 1122.78 470.153 1124.47L469.374 1125.09C467.482 1123.13 467.258 1120.86 468.602 1118.87V1118.87ZM474.835 1123.02C474.453 1124.07 474.381 1125.5 475.36 1126.15C476.087 1126.62 476.977 1126.38 477.504 1125.6V1125.6C478.076 1124.76 478.035 1123.58 477.597 1122.68L475.456 1121.27L474.835 1123.02ZM480.062 1107.93L477.538 1110.72L482.61 1115.15C483.733 1116.12 484.782 1116.22 485.533 1115.39C486.095 1114.77 486.092 1114.07 485.92 1113.3L486.919 1113.15C487.588 1114.82 487.437 1116.14 486.54 1117.13V1117.13C485.278 1118.53 483.186 1118.51 481.39 1116.94L476.824 1112.96L476.001 1112.25L475.752 1112.52L474.474 1113.94L473.677 1113.34L474.736 1111.24L473.605 1108.35L474.136 1107.76L476.232 1109.58L478.786 1106.75L480.062 1107.93ZM596.345 1106.67C599.144 1104.1 602.899 1104.13 605.385 1106.75C607.874 1109.38 607.636 1113.06 604.833 1115.62C602.034 1118.18 598.282 1118.16 595.793 1115.53C593.304 1112.91 593.542 1109.23 596.342 1106.66L596.345 1106.67ZM604.468 1107.59C602.968 1106.01 600.545 1106.41 598.169 1108.59C595.79 1110.77 595.21 1113.11 596.71 1114.7C598.21 1116.28 600.63 1115.88 603.009 1113.7C605.388 1111.52 605.967 1109.18 604.468 1107.59ZM485.247 1100.58C488.057 1098.29 491.781 1098.73 494.229 1101.62C496.677 1104.51 496.442 1108.19 493.632 1110.49C490.826 1112.78 487.098 1112.34 484.651 1109.45H484.654C482.207 1106.56 482.441 1102.88 485.247 1100.58ZM596.993 1099.01L597.617 1099.5L590.418 1108.23L591.815 1109.82L591.204 1110.6L589.55 1109.29L587.76 1107.86L586.106 1106.55L586.757 1105.8L588.626 1106.81V1106.81L594.407 1099.8L592.959 1098.39L593.508 1097.69L596.993 1099.01ZM492.174 1103.3C490.092 1100.84 487.744 1100.14 486.051 1101.53C484.358 1102.91 484.634 1105.31 486.713 1107.77C488.792 1110.22 491.143 1110.92 492.836 1109.54C494.528 1108.15 494.253 1105.76 492.174 1103.3V1103.3ZM501.645 1092.76L501.172 1093.04C498.29 1094.72 497.942 1095.92 499.428 1098.43L499.555 1098.64L501.983 1102.66L504.306 1101.73L504.837 1102.56L502.69 1103.82L500.707 1104.97L499.097 1105.92L498.608 1105.06L500.007 1103.81L495.315 1096.05L493.47 1096.9L492.987 1096.16L495.349 1093.46L496.035 1093.06L497.39 1095.3L497.821 1095.05C497.99 1093.55 498.683 1091.51 500.318 1090.56L501.645 1092.76ZM590.015 1091.04L588.512 1093.36L591.763 1095.39L590.78 1096.82L587.574 1094.81L583.937 1100.43C583.13 1101.68 583.203 1102.71 584.151 1103.31C584.868 1103.76 585.564 1103.64 586.316 1103.35L586.622 1104.3C585.054 1105.21 583.706 1105.28 582.569 1104.56L582.565 1104.56C580.962 1103.55 580.645 1101.52 581.938 1099.53L585.216 1094.47L585.806 1093.56L585.488 1093.36L583.862 1092.35L584.337 1091.48L586.612 1092.17L589.339 1090.62L590.015 1091.04ZM580.81 1088.73L581.528 1089.08L576.476 1099.16L578.194 1100.4L577.776 1101.3L575.869 1100.37L573.804 1099.37L571.898 1098.45L572.363 1097.58L574.412 1098.16L578.466 1090.07L576.738 1089.01L577.114 1088.2L580.81 1088.73ZM510.843 1087.7L512.129 1090L511.215 1090.4C510.132 1089.14 508.771 1088.18 507.088 1088.88C506.119 1089.28 505.472 1090.11 505.889 1091.09C506.296 1092.04 507.437 1092.48 508.778 1092.51L510.75 1092.54C512.395 1092.58 513.683 1092.93 514.356 1094.49C515.252 1096.58 514.184 1098.65 511.994 1099.55C511.232 1099.87 510.405 1100.03 509.529 1100.01L509.115 1100.19L508.95 1100.82L508.212 1101.12L507.609 1099.72L507.599 1099.71L506.112 1096.93L507.027 1096.53C508.185 1098.03 509.726 1099.15 511.57 1098.38C512.608 1097.95 513.274 1097.04 512.836 1096.02C512.429 1095.07 511.446 1094.99 510.37 1094.96L508.446 1094.9C506.602 1094.84 505.057 1094.09 504.378 1092.51C503.53 1090.53 504.589 1088.63 506.619 1087.79C507.357 1087.49 508.164 1087.34 508.967 1087.38L509.429 1087.19L509.502 1086.6L510.239 1086.29L510.843 1087.7ZM574.914 1079.82L575.666 1080.1L569.605 1096.12L571.211 1097.1L570.884 1098.03L569.126 1097.39L566.967 1096.6L565.205 1095.95L565.581 1095.04L567.444 1095.33L572.722 1081.38L570.895 1080.5L571.184 1079.67L574.914 1079.82ZM597.676 1094.43C598.29 1093.69 599.383 1093.57 600.138 1094.18C600.896 1094.78 601.009 1095.85 600.396 1096.6C599.782 1097.34 598.69 1097.45 597.935 1096.85C597.176 1096.25 597.062 1095.17 597.676 1094.43V1094.43ZM555.711 1084.85C556.897 1082.41 558.983 1081.4 561.348 1081.93H561.344C563.612 1082.44 564.937 1084.13 564.409 1086.28L562.958 1092.16C562.841 1092.67 562.703 1093.57 563.265 1093.7C563.558 1093.76 563.975 1093.63 564.378 1093.21L564.912 1093.79C564.24 1094.8 563.358 1095.61 562.186 1095.35C561.162 1095.12 560.5 1094.21 560.645 1093.15L560.158 1093.04C559.169 1093.98 557.893 1094.38 556.673 1094.1C555.063 1093.74 554.119 1092.29 554.508 1090.63C554.991 1088.57 557.063 1088.05 559.39 1088.1L561.717 1088.15L562.12 1086.42C562.444 1085.03 561.747 1083.84 560.31 1083.51C559.138 1083.25 557.745 1083.62 556.57 1085.34L555.711 1084.85ZM536.263 1076.61L537.383 1080.75L536.301 1080.95C535.015 1078.6 533.097 1076.76 530.201 1077.18C526.389 1077.73 525.303 1081.49 525.792 1084.77C526.444 1089.16 529.685 1091.37 533.026 1090.89C535.577 1090.52 537.032 1088.75 537.659 1086.32L538.7 1086.52C538.245 1090.09 536.297 1092.96 532.557 1093.49C528.099 1094.13 524.206 1090.91 523.465 1085.95L523.461 1085.95C522.734 1081.06 525.347 1076.53 530.201 1075.84C531.636 1075.63 532.904 1075.8 534.27 1076.32L534.767 1076.25L535.18 1075.12L536.022 1075L536.263 1076.61ZM547.219 1080.03C550.867 1080.22 553.298 1083.03 553.098 1086.78C552.894 1090.54 550.177 1093.08 546.529 1092.9C542.882 1092.71 540.452 1089.9 540.655 1086.14C540.855 1082.38 543.572 1079.84 547.219 1080.03ZM559.611 1089.14C558.476 1089.16 557.086 1089.6 556.824 1090.73C556.628 1091.57 557.176 1092.3 558.104 1092.51L558.1 1092.5C559.1 1092.73 560.21 1092.27 560.917 1091.55L561.496 1089.08L559.611 1089.14ZM547.157 1081.25C544.958 1081.14 543.503 1083.08 543.33 1086.28C543.158 1089.47 544.399 1091.55 546.599 1091.66C548.73 1091.77 550.161 1089.95 550.405 1086.94L550.426 1086.64C550.598 1083.45 549.357 1081.37 547.157 1081.25ZM580.445 1084.12C580.875 1083.26 581.914 1082.91 582.789 1083.34C583.665 1083.76 584.016 1084.78 583.585 1085.64C583.154 1086.5 582.117 1086.85 581.241 1086.42C580.366 1086 580.014 1084.98 580.445 1084.12Z" fill="#530B2F"/>
<path d="M406.497 442V411.125H417.908V442H406.497ZM428.824 442V419.522H420.341V411.125H448.719V419.522H440.236V442H428.824ZM461.315 411.168L459.549 424.043H449.709L452.982 411.168H461.315ZM477.291 442.754C468.764 442.754 462.693 439.933 462.693 433.086H474.341C474.341 435.282 475.503 436.294 477.291 436.294C478.733 436.294 479.767 435.648 479.767 434.206C479.767 432.656 478.625 431.967 476.408 431.191L472.145 429.706C466.956 427.897 462.994 425.766 462.994 420.34C462.994 413.256 469.453 410.436 477.291 410.436C484.051 410.436 491.07 413.019 491.07 419.823H479.767C479.724 417.799 478.669 416.852 477.054 416.852C475.568 416.852 474.556 417.627 474.556 418.854C474.556 420.34 475.891 420.835 477.85 421.546L481.834 422.988C487.41 425.012 491.716 427.23 491.716 433.086C491.716 440.105 485.386 442.754 477.291 442.754ZM516.218 442.754C507.692 442.754 501.62 439.933 501.62 433.086H513.269C513.269 435.282 514.431 436.294 516.218 436.294C517.661 436.294 518.694 435.648 518.694 434.206C518.694 432.656 517.553 431.967 515.336 431.191L511.073 429.706C505.884 427.897 501.922 425.766 501.922 420.34C501.922 413.256 508.381 410.436 516.218 410.436C522.979 410.436 529.998 413.019 529.998 419.823H518.694C518.651 417.799 517.596 416.852 515.982 416.852C514.496 416.852 513.484 417.627 513.484 418.854C513.484 420.34 514.819 420.835 516.778 421.546L520.761 422.988C526.338 425.012 530.644 427.23 530.644 433.086C530.644 440.105 524.314 442.754 516.218 442.754ZM533.142 442V411.125H544.553V442H533.142ZM548.17 442V411.125H563.479L568.108 429.275L572.78 411.125H587.636V442L577.129 442V423.29L572.349 442H563.522L558.677 423.591V442H548.17ZM591.275 442V411.125L605.442 411.125C613.495 411.125 619.136 413.73 619.136 421.373C619.136 429.447 613.581 432.247 605.744 432.247H602.687V442H591.275ZM602.687 425.443H603.828C606.218 425.443 607.832 424.259 607.832 421.503C607.832 418.79 606.218 417.885 603.806 417.885H602.687V425.443ZM621.375 442V411.125H632.787V433.603H645.921V442H621.375ZM648.375 442V411.125H673.825V418.402H659.787V422.644H671.262V429.964H659.787V434.679H673.825V442H648.375Z" fill="#530B2F"/>
<path d="M134.346 507.322V475.271H120.473V462.916H167.047V475.271H153.174V507.322H134.346ZM170.918 507.322V462.916H189.746V478.585H201.823V462.916H220.651V507.322H201.823V490.724H189.746V507.322H170.918ZM226.473 507.322V462.916H268.991V473.537H245.301V479.328H264.717V490.136H245.301V496.546H268.991V507.322H226.473ZM282.616 507.322L297.697 462.916H324.36L339.378 507.322H319.467L317.516 500.169H304.2L302.218 507.322H282.616ZM307.049 488.742H314.729L310.92 474.435L307.049 488.742ZM365.824 508.499C348.947 508.499 338.449 500.695 338.449 485.026C338.449 469.295 349.66 461.677 366.444 461.677C381.494 461.677 391.96 468.18 392.889 479.142H372.73C372.544 474.9 370.562 471.989 366.351 471.989C361.024 471.989 358.671 476.634 358.671 485.057C358.671 493.418 360.839 498.094 366.165 498.094C370.81 498.094 372.699 494.533 373.04 490.136H392.982C392.053 502.708 380.503 508.499 365.824 508.499ZM407.413 507.322V475.271H393.54V462.916H440.114V475.271H426.241V507.322H407.413ZM483.065 508.561C466.281 508.561 454.606 500.974 454.606 485.057C454.606 469.016 466.931 461.677 483.065 461.677C499.292 461.677 511.524 468.892 511.524 485.057C511.524 500.974 499.973 508.561 483.065 508.561ZM474.828 485.057C474.828 492.799 477.088 498.249 483.065 498.249C489.011 498.249 491.271 492.799 491.271 485.057C491.271 477.346 488.98 471.989 483.065 471.989C477.119 471.989 474.828 477.377 474.828 485.057ZM515.828 507.322V462.916H556.24V474.064H534.656V480.753H552.617V491.963H534.656V507.322H515.828ZM598.51 508.499C581.633 508.499 571.135 500.695 571.135 485.026C571.135 469.295 582.345 461.677 599.129 461.677C614.179 461.677 624.646 468.18 625.575 479.142H605.415C605.23 474.9 603.248 471.989 599.036 471.989C593.71 471.989 591.356 476.634 591.356 485.057C591.356 493.418 593.524 498.094 598.85 498.094C603.495 498.094 605.384 494.533 605.725 490.136H625.668C624.739 502.708 613.188 508.499 598.51 508.499ZM629.291 507.322V462.916H657.347C671.034 462.916 677.383 466.941 677.383 475.055C677.383 482.146 672.738 485.491 667.071 486.791C673.945 487.968 677.692 490.167 677.692 497.196V507.322H658.833V496.948C658.833 493.047 656.418 491.56 651.649 491.56H648.119V507.322H629.291ZM648.119 482.084H652.392C656.201 482.084 658.833 480.815 658.833 477.191C658.833 473.847 656.325 472.701 652.392 472.701H648.119V482.084ZM682.678 507.322V462.916H725.196V473.537H701.506V479.328H720.922V490.136H701.506V496.546H725.196V507.322H682.678ZM726.372 507.322L741.453 462.916H768.116L783.135 507.322H763.223L761.272 500.169H747.956L745.974 507.322H726.372ZM750.805 488.742H758.485L754.676 474.435L750.805 488.742ZM792.022 507.322V475.271H778.149V462.916H824.723V475.271H810.85V507.322H792.022ZM828.594 507.322V462.916H847.422V507.322H828.594ZM880.185 508.561C863.401 508.561 851.726 500.974 851.726 485.057C851.726 469.016 864.051 461.677 880.185 461.677C896.412 461.677 908.644 468.892 908.644 485.057C908.644 500.974 897.093 508.561 880.185 508.561ZM871.948 485.057C871.948 492.799 874.208 498.249 880.185 498.249C886.131 498.249 888.391 492.799 888.391 485.057C888.391 477.346 886.1 471.989 880.185 471.989C874.239 471.989 871.948 477.377 871.948 485.057ZM912.948 507.322V462.916H935.647L948.715 486.853V462.916H965.994V507.322H944.287L930.259 481.682V507.322H912.948ZM181.106 557.322V512.916H205.354L212.879 538.525L220.558 512.916H244.155V557.322H227.278V530.907L219.444 557.322H205.88L197.983 531.124V557.322H181.106ZM273.883 558.592C257.254 558.592 249.605 552.77 249.605 542.582V512.916H268.433V541.343C268.433 544.843 270.384 546.67 273.883 546.67C277.476 546.67 279.365 544.843 279.365 541.343V512.916H298.192V542.582C298.192 552.77 290.482 558.592 273.883 558.592ZM326.125 558.561C311.973 558.561 302.032 554.164 301.878 544.378H321.572C321.603 547.599 323.585 549.209 326.62 549.209C328.85 549.209 330.646 548.311 330.646 546.174C330.646 543.945 328.85 542.985 325.381 541.994L317.764 539.888C309.712 537.534 302.435 534.5 302.435 526.355C302.435 515.858 313.428 511.739 326.032 511.739C337.335 511.739 348.978 515.579 349.381 525.457H330.336C330.181 522.33 328.323 521.029 325.784 521.029C323.431 521.029 321.696 522.206 321.696 524.064C321.696 526.139 323.647 526.82 326.279 527.656L335.136 530.04C343.621 532.611 350.341 535.862 350.341 544.285C350.341 554.597 339.626 558.561 326.125 558.561ZM364.957 557.322V525.271H351.084V512.916H397.658V525.271H383.785V557.322H364.957ZM436.119 558.561C421.967 558.561 412.027 554.164 411.872 544.378H431.567C431.598 547.599 433.58 549.209 436.615 549.209C438.844 549.209 440.64 548.311 440.64 546.174C440.64 543.945 438.844 542.985 435.376 541.994L427.758 539.888C419.707 537.534 412.429 534.5 412.429 526.355C412.429 515.858 423.423 511.739 436.026 511.739C447.329 511.739 458.973 515.579 459.375 525.457H440.331C440.176 522.33 438.318 521.029 435.779 521.029C433.425 521.029 431.691 522.206 431.691 524.064C431.691 526.139 433.642 526.82 436.274 527.656L445.131 530.04C453.615 532.611 460.335 535.862 460.335 544.285C460.335 554.597 449.621 558.561 436.119 558.561ZM474.952 557.322V525.271H461.079V512.916H507.653V525.271H493.78V557.322H474.952ZM502.636 557.322L517.717 512.916H544.38L559.399 557.322H539.487L537.536 550.169H524.22L522.238 557.322H502.636ZM527.069 538.742H534.749L530.94 524.435L527.069 538.742ZM569.649 546.794C569.649 543.821 568.503 542.458 564.446 542.52L552.462 512.916H572.838L579.155 531.929L585.473 512.916H605.632L593.741 542.52C589.529 542.458 588.538 543.821 588.538 546.794V557.322H569.649V546.794ZM619.784 557.322V512.916H638.612V528.585H650.689V512.916H669.517V557.322H650.689V540.724H638.612V557.322H619.784ZM699.245 558.592C682.616 558.592 674.967 552.77 674.967 542.582V512.916H693.795V541.343C693.795 544.843 695.746 546.67 699.245 546.67C702.837 546.67 704.726 544.843 704.726 541.343V512.916H723.554V542.582C723.554 552.77 715.843 558.592 699.245 558.592ZM729.035 557.322V512.916H753.283L760.807 538.525L768.487 512.916H792.084V557.322H775.207V530.907L767.372 557.322H753.809L745.912 531.124V557.322H729.035ZM794.778 557.322L809.859 512.916H836.522L851.541 557.322H831.629L829.678 550.169H816.362L814.38 557.322H794.778ZM819.211 538.742H826.891L823.082 524.435L819.211 538.742ZM854.266 557.322V512.916H876.964L890.032 536.853V512.916H907.312V557.322H885.604L871.576 531.682V557.322H854.266Z" fill="#530B2F"/>
<path d="M92.2188 809.601L116.561 576.888H191.86L219.448 809.601H168.654L164.435 758.319H145.285L141.877 809.601H92.2188ZM147.557 717.749H161.838L154.211 618.107H153.886L147.557 717.749ZM279.817 812.846C242.33 812.846 222.856 792.399 222.856 759.618V628.818C222.856 595.063 243.466 573.642 280.629 573.642C317.142 573.642 337.59 594.09 337.59 628.818V661.924H288.094V622.976C288.094 618.107 285.659 614.213 280.629 614.213C275.598 614.213 273.164 617.945 273.164 622.976V763.675C273.164 768.543 275.436 772.276 280.629 772.276C285.497 772.276 288.094 768.543 288.094 763.675V718.56H337.59V759.618C337.59 791.75 317.629 812.846 279.817 812.846ZM371.02 809.601V619.081H340.998V576.888H449.727V619.081H419.705V809.601H371.02ZM493.543 809.601V576.888H554.237L578.742 700.547H579.066V576.888H624.505V809.601H568.193L539.307 668.253H538.982V809.601H493.543ZM696.721 812.846C657.286 812.846 638.299 791.912 638.299 754.911V631.577C638.299 596.199 659.234 573.642 696.721 573.642C734.208 573.642 755.143 595.225 755.143 631.577V754.911C755.143 791.912 735.993 812.846 696.721 812.846ZM689.256 763.35C689.256 768.543 691.528 772.276 696.721 772.276C701.914 772.276 704.186 768.543 704.186 763.35V623.138C704.186 618.27 701.752 614.213 696.721 614.213C691.528 614.213 689.256 617.945 689.256 623.138V763.35ZM779.81 809.601L762.283 576.888H807.235L813.24 743.065H813.564L823.301 576.888H873.446L883.021 744.688H883.346L889.512 576.888H933.491L915.964 809.601H856.894L847.481 645.208H847.157L838.88 809.601H779.81ZM967.083 812.197C952.153 812.197 941.118 801 941.118 786.07C941.118 771.302 952.153 760.104 967.083 760.104C981.851 760.104 992.886 771.302 992.886 786.07C992.886 801 981.851 812.197 967.083 812.197ZM941.93 576.888H991.426L984.61 754.1H948.746L941.93 576.888Z" fill="#530B2F"/>
</svg>
