<svg width="1023" height="877" viewBox="0 0 1023 877" fill="none" xmlns="http://www.w3.org/2000/svg">
<path d="M57.0507 493V435.09H31.9844V412.765H116.135V435.09H91.0692V493H57.0507Z" fill="black"/>
<path d="M123.129 493V412.765H199.951V431.957H157.148V442.42H192.23V461.947H157.148V473.529H199.951V493H123.129Z" fill="black"/>
<path d="M253.496 495.126C223.003 495.126 204.035 481.026 204.035 452.715C204.035 424.291 224.29 410.527 254.615 410.527C281.808 410.527 300.72 422.277 302.398 442.084H265.974C265.638 434.419 262.057 429.159 254.448 429.159C244.824 429.159 240.572 437.552 240.572 452.771C240.572 467.878 244.488 476.326 254.112 476.326C262.505 476.326 265.918 469.892 266.533 461.947H302.566C300.887 484.663 280.017 495.126 253.496 495.126Z" fill="black"/>
<path d="M309.112 493V412.765H343.131V441.077H364.952V412.765H398.97V493H364.952V463.01H343.131V493H309.112Z" fill="black"/>
<path d="M409.489 493V412.765H450.502L474.113 456.016V412.765H505.334V493H466.112L440.766 446.672V493H409.489Z" fill="black"/>
<path d="M564.587 495.238C534.261 495.238 513.168 481.53 513.168 452.771C513.168 423.788 535.436 410.527 564.587 410.527C593.906 410.527 616.006 423.564 616.006 452.771C616.006 481.53 595.137 495.238 564.587 495.238ZM549.704 452.771C549.704 466.759 553.788 476.606 564.587 476.606C575.33 476.606 579.414 466.759 579.414 452.771C579.414 438.839 575.274 429.159 564.587 429.159C553.844 429.159 549.704 438.895 549.704 452.771Z" fill="black"/>
<path d="M623.784 493V412.765H657.802V470.395H696.577V493H623.784Z" fill="black"/>
<path d="M748.891 495.238C718.566 495.238 697.472 481.53 697.472 452.771C697.472 423.788 719.741 410.527 748.891 410.527C778.21 410.527 800.311 423.564 800.311 452.771C800.311 481.53 779.441 495.238 748.891 495.238ZM734.008 452.771C734.008 466.759 738.093 476.606 748.891 476.606C759.634 476.606 763.718 466.759 763.718 452.771C763.718 438.839 759.578 429.159 748.891 429.159C738.149 429.159 734.008 438.895 734.008 452.771Z" fill="black"/>
<path d="M857.269 495.294C825.153 495.294 805.402 482.481 805.402 453.554C805.402 423.564 826.44 410.527 856.598 410.527C882.951 410.527 902.31 420.711 903.765 440.238H867.453C867.229 433.132 863.2 429.159 856.486 429.159C847.03 429.159 841.939 435.761 841.939 452.491C841.939 469.276 847.198 476.55 860.011 476.55C863.312 476.55 867.061 475.991 869.803 474.816V466.815H851.339V449.358H903.821V487.125C895.205 491.042 875.51 495.294 857.269 495.294Z" fill="black"/>
<path d="M933.811 473.976C933.811 468.605 931.741 466.143 924.411 466.255L902.758 412.765H939.574L950.988 447.12L962.402 412.765H998.827L977.341 466.255C969.732 466.143 967.942 468.605 967.942 473.976V493H933.811V473.976Z" fill="black"/>
<path d="M281.752 586.238C256.182 586.238 238.222 578.293 237.942 560.612H273.527C273.583 566.431 277.164 569.341 282.647 569.341C286.676 569.341 289.921 567.718 289.921 563.857C289.921 559.829 286.676 558.094 280.409 556.304L266.645 552.499C252.098 548.247 238.949 542.764 238.949 528.048C238.949 509.081 258.812 501.639 281.584 501.639C302.006 501.639 323.044 508.577 323.772 526.426H289.361C289.082 520.775 285.725 518.425 281.137 518.425C276.884 518.425 273.751 520.551 273.751 523.908C273.751 527.657 277.276 528.888 282.032 530.398L298.034 534.707C313.365 539.351 325.506 545.225 325.506 560.444C325.506 579.076 306.147 586.238 281.752 586.238Z" fill="black"/>
<path d="M332.836 584V503.765H366.854V532.077H388.675V503.765H422.694V584H388.675V554.01H366.854V584H332.836Z" fill="black"/>
<path d="M481.891 586.238C451.565 586.238 430.471 572.53 430.471 543.771C430.471 514.788 452.74 501.527 481.891 501.527C511.209 501.527 533.31 514.564 533.31 543.771C533.31 572.53 512.44 586.238 481.891 586.238ZM467.008 543.771C467.008 557.759 471.092 567.606 481.891 567.606C492.633 567.606 496.718 557.759 496.718 543.771C496.718 529.839 492.577 520.159 481.891 520.159C471.148 520.159 467.008 529.895 467.008 543.771Z" fill="black"/>
<path d="M584.282 586.294C554.236 586.294 540.416 575.775 540.416 557.367V503.765H574.435V555.129C574.435 561.451 577.959 564.753 584.282 564.753C590.772 564.753 594.185 561.451 594.185 555.129V503.765H628.204V557.367C628.204 575.775 614.272 586.294 584.282 586.294Z" fill="black"/>
<path d="M638.107 584V503.765H672.126V561.395H710.9V584H638.107Z" fill="black"/>
<path d="M717.894 584V503.765H761.089C791.862 503.765 810.774 515.124 810.774 543.379C810.774 571.858 792.254 584 760.249 584H717.894ZM751.857 564.081H756.053C767.691 564.081 774.349 558.598 774.349 543.379C774.349 528.608 768.362 523.684 756.389 523.684H751.857V564.081Z" fill="black"/>
<path d="M96.8322 677.238C71.2624 677.238 53.3019 669.293 53.0222 651.612H88.6073C88.6633 657.431 92.2442 660.341 97.7274 660.341C101.756 660.341 105.001 658.718 105.001 654.857C105.001 650.829 101.756 649.094 95.4894 647.304L81.7253 643.499C67.1779 639.247 54.0293 633.764 54.0293 619.048C54.0293 600.081 73.8921 592.639 96.6644 592.639C117.087 592.639 138.124 599.577 138.852 617.426H104.442C104.162 611.775 100.805 609.425 96.2167 609.425C91.9644 609.425 88.8311 611.551 88.8311 614.908C88.8311 618.657 92.3561 619.888 97.112 621.398L113.114 625.707C128.445 630.351 140.586 636.225 140.586 651.444C140.586 670.076 121.227 677.238 96.8322 677.238Z" fill="black"/>
<path d="M166.995 675V617.09H141.929V594.765H226.08V617.09H201.014V675H166.995Z" fill="black"/>
<path d="M233.074 675V594.765H283.766C308.497 594.765 319.967 602.039 319.967 616.698C319.967 629.511 311.574 635.554 301.335 637.904C313.756 640.03 320.526 644.003 320.526 656.704V675H286.452V656.256C286.452 649.206 282.088 646.521 273.471 646.521H267.093V675H233.074ZM267.093 629.399H274.814C281.696 629.399 286.452 627.105 286.452 620.559C286.452 614.516 281.92 612.446 274.814 612.446H267.093V629.399Z" fill="black"/>
<path d="M329.535 675V594.765H406.356V613.957H363.553V624.42H398.635V643.947H363.553V655.529H406.356V675H329.535Z" fill="black"/>
<path d="M415.14 675V594.765H456.153L479.764 638.016V594.765H510.985V675H471.763L446.417 628.672V675H415.14Z" fill="black"/>
<path d="M570.742 677.294C538.626 677.294 518.875 664.481 518.875 635.554C518.875 605.564 539.912 592.527 570.07 592.527C596.423 592.527 615.783 602.71 617.237 622.238H580.925C580.701 615.132 576.673 611.159 569.958 611.159C560.503 611.159 555.411 617.761 555.411 634.491C555.411 651.276 560.67 658.55 573.483 658.55C576.784 658.55 580.533 657.991 583.275 656.816V648.815H564.811V631.358H617.293V669.125C608.677 673.042 588.982 677.294 570.742 677.294Z" fill="black"/>
<path d="M645.157 675V617.09H620.091V594.765H704.242V617.09H679.176V675H645.157Z" fill="black"/>
<path d="M711.236 675V594.765H745.254V623.077H767.076V594.765H801.094V675H767.076V645.01H745.254V675H711.236Z" fill="black"/>
<path d="M811.613 675V594.765H888.434V613.957H845.632V624.42H880.713V643.947H845.632V655.529H888.434V675H811.613Z" fill="black"/>
<path d="M897.219 675V594.765H938.231L961.843 638.016V594.765H993.064V675H953.842L928.496 628.672V675H897.219Z" fill="black"/>
<path d="M264.911 766V685.765H298.929V714.077H320.75V685.765H354.769V766H320.75V736.01H298.929V766H264.911Z" fill="black"/>
<path d="M408.482 768.294C378.436 768.294 364.616 757.775 364.616 739.367V685.765H398.635V737.129C398.635 743.451 402.16 746.753 408.482 746.753C414.973 746.753 418.386 743.451 418.386 737.129V685.765H452.404V739.367C452.404 757.775 438.472 768.294 408.482 768.294Z" fill="black"/>
<path d="M462.308 766V685.765H506.118L519.714 732.037L533.59 685.765H576.225V766H545.731V718.273L531.576 766H507.069L492.801 718.665V766H462.308Z" fill="black"/>
<path d="M581.093 766L608.341 685.765H656.515L683.652 766H647.675L644.15 753.075H620.091L616.51 766H581.093ZM625.238 732.429H639.114L632.232 706.579L625.238 732.429Z" fill="black"/>
<path d="M688.576 766V685.765H729.588L753.2 729.016V685.765H784.421V766H745.198L719.852 719.672V766H688.576Z" fill="black"/>
<path d="M161.568 859.126C131.075 859.126 112.107 845.026 112.107 816.715C112.107 788.291 132.361 774.527 162.687 774.527C189.88 774.527 208.791 786.277 210.47 806.084H174.045C173.71 798.419 170.129 793.159 162.519 793.159C152.896 793.159 148.643 801.552 148.643 816.771C148.643 831.878 152.56 840.326 162.184 840.326C170.576 840.326 173.989 833.892 174.605 825.947H210.638C208.959 848.663 188.089 859.126 161.568 859.126Z" fill="black"/>
<path d="M217.184 857V776.765H267.876C292.607 776.765 304.077 784.039 304.077 798.698C304.077 811.511 295.684 817.554 285.445 819.904C297.866 822.03 304.636 826.003 304.636 838.704V857H270.562V838.256C270.562 831.206 266.197 828.521 257.581 828.521H251.202V857H217.184ZM251.202 811.399H258.924C265.806 811.399 270.562 809.105 270.562 802.559C270.562 796.516 266.03 794.446 258.924 794.446H251.202V811.399Z" fill="black"/>
<path d="M313.644 857V776.765H390.466V795.957H347.663V806.42H382.745V825.947H347.663V837.529H390.466V857H313.644Z" fill="black"/>
<path d="M392.592 857L419.84 776.765H468.015L495.151 857H459.174L455.649 844.075H431.59L428.009 857H392.592ZM436.738 823.429H450.614L443.732 797.579L436.738 823.429Z" fill="black"/>
<path d="M511.209 857V799.09H486.143V776.765H570.294V799.09H545.228V857H511.209Z" fill="black"/>
<path d="M577.288 857V776.765H611.306V857H577.288Z" fill="black"/>
<path d="M640.289 857L617.07 776.765H652.599L664.74 831.542L676.826 776.765H711.963L688.576 857H640.289Z" fill="black"/>
<path d="M717.614 857V776.765H751.633V857H717.614Z" fill="black"/>
<path d="M783.693 857V799.09H758.627V776.765H842.778V799.09H817.712V857H783.693Z" fill="black"/>
<path d="M875.789 837.976C875.789 832.605 873.719 830.143 866.39 830.255L844.736 776.765H881.552L892.967 811.12L904.381 776.765H940.805L919.32 830.255C911.71 830.143 909.92 832.605 909.92 837.976V857H875.789V837.976Z" fill="black"/>
<path d="M320.398 129.252V87.9223H335.674V129.252H320.398Z" fill="black"/>
<path d="M350.286 129.252V99.1625H338.931V87.9223H376.917V99.1625H365.562V129.252H350.286Z" fill="black"/>
<path d="M391.919 87.8157C391.565 89.2324 391.113 90.9244 390.562 92.8919C390.011 94.8594 389.421 96.8466 388.791 98.8535C388.161 100.821 387.512 102.533 386.843 103.989H378.816C379.091 102.651 379.366 101.254 379.642 99.7979C379.917 98.3026 380.173 96.827 380.409 95.371C380.685 93.8757 380.921 92.4394 381.118 91.0621C381.354 89.6455 381.531 88.347 381.649 87.1665H391.506L391.919 87.8157Z" fill="black"/>
<path d="M412.973 130.26C401.56 130.26 393.432 126.485 393.432 117.32H409.024C409.024 120.259 410.581 121.614 412.973 121.614C414.904 121.614 416.287 120.749 416.287 118.818C416.287 116.743 414.76 115.821 411.791 114.783L406.085 112.795C399.139 110.374 393.835 107.521 393.835 100.258C393.835 90.7756 402.482 87 412.973 87C422.023 87 431.419 90.4585 431.419 99.566H416.287C416.23 96.8568 414.817 95.5887 412.656 95.5887C410.667 95.5887 409.313 96.6262 409.313 98.269C409.313 100.258 411.1 100.921 413.722 101.872L419.054 103.803C426.519 106.512 432.283 109.48 432.283 117.32C432.283 126.715 423.81 130.26 412.973 130.26Z" fill="black"/>
<path d="M465.082 130.26C453.669 130.26 445.541 126.485 445.541 117.32H461.134C461.134 120.259 462.69 121.614 465.082 121.614C467.013 121.614 468.397 120.749 468.397 118.818C468.397 116.743 466.869 115.821 463.9 114.783L458.194 112.795C451.248 110.374 445.945 107.521 445.945 100.258C445.945 90.7756 454.591 87 465.082 87C474.132 87 483.528 90.4585 483.528 99.566H468.397C468.339 96.8568 466.927 95.5887 464.765 95.5887C462.776 95.5887 461.422 96.6262 461.422 98.269C461.422 100.258 463.209 100.921 465.831 101.872L471.163 103.803C478.628 106.512 484.392 109.48 484.392 117.32C484.392 126.715 475.919 130.26 465.082 130.26Z" fill="black"/>
<path d="M487.736 129.252V87.9223H503.011V129.252H487.736Z" fill="black"/>
<path d="M507.853 129.252V87.9223H528.345L534.542 112.218L540.796 87.9223H560.683V129.252H546.618V104.206L540.22 129.252H528.403L521.918 104.61V129.252H507.853Z" fill="black"/>
<path d="M565.554 129.252V87.9223H584.518C595.297 87.9223 602.849 91.4096 602.849 101.641C602.849 112.449 595.413 116.196 584.922 116.196H580.829V129.252H565.554ZM580.829 107.088H582.357C585.556 107.088 587.717 105.503 587.717 101.814C587.717 98.1826 585.556 96.9721 582.328 96.9721H580.829V107.088Z" fill="black"/>
<path d="M605.846 129.252V87.9223H621.121V118.011H638.703V129.252H605.846Z" fill="black"/>
<path d="M641.988 129.252V87.9223H676.055V97.6638H657.264V103.342H672.625V113.141H657.264V119.452H676.055V129.252H641.988Z" fill="black"/>
<path d="M686.517 129.972C682.309 129.972 679.254 126.888 679.254 122.882C679.254 118.876 682.309 115.85 686.517 115.85C690.696 115.85 693.78 118.876 693.78 122.882C693.78 126.888 690.696 129.972 686.517 129.972ZM679.254 103.947C679.254 99.9406 682.309 96.9144 686.517 96.9144C690.696 96.9144 693.78 99.9406 693.78 103.947C693.78 107.953 690.696 111.037 686.517 111.037C682.309 111.037 679.254 107.953 679.254 103.947Z" fill="black"/>
</svg>
